PathFileType  4	(X/Y/Z) C:\Users\antoi\Documents\MyRepositories\mobilecap\ResultsAnalysis
DataRate	CameraRate	NumFrames	NumMarkers	Units	OrigDataRate	OrigDataStartFrame	OrigNumFrames
100.0	100.0	6	51	mm	100.0	33	263
Frame#	Time	r_knee			r_shank_antsup			r_ankle			r_calc			r_5meta			r_toe			L_knee			L_shank_antsup			L_ankle			L_calc			L_5meta			L_toe			r_sh2			r_sh3			r_sh4			L_sh2			L_sh3			r_thigh1			r_thigh2			r_thigh3			r_thigh4			r_thigh5			L_thigh1			L_thigh2			L_thigh3			L_thigh4			r.ASIS			r.PSIS			L.ASIS			L.PSIS			C7			R_Shoulder			L_Shoulder			R_Sternum			L_Sternum			R_humerus			R_elbow_med			R_elbow_lat			R_forearm			R_wrist_radius			R_wrist_ulna			L_humerus			L_elbow_med			L_elbow_lat			L_forearm			L_wrist_radius			L_wrist_ulna			R_HJC			L_HJC			R_HJC_reg			L_HJC_reg			
		X1	Y1	Z1	X2	Y2	Z2	X3	Y3	Z3	X4	Y4	Z4	X5	Y5	Z5	X6	Y6	Z6	X7	Y7	Z7	X8	Y8	Z8	X9	Y9	Z9	X10	Y10	Z10	X11	Y11	Z11	X12	Y12	Z12	X13	Y13	Z13	X14	Y14	Z14	X15	Y15	Z15	X16	Y16	Z16	X17	Y17	Z17	X18	Y18	Z18	X19	Y19	Z19	X20	Y20	Z20	X21	Y21	Z21	X22	Y22	Z22	X23	Y23	Z23	X24	Y24	Z24	X25	Y25	Z25	X26	Y26	Z26	X27	Y27	Z27	X28	Y28	Z28	X29	Y29	Z29	X30	Y30	Z30	X31	Y31	Z31	X32	Y32	Z32	X33	Y33	Z33	X34	Y34	Z34	X35	Y35	Z35	X36	Y36	Z36	X37	Y37	Z37	X38	Y38	Z38	X39	Y39	Z39	X40	Y40	Z40	X41	Y41	Z41	X42	Y42	Z42	X43	Y43	Z43	X44	Y44	Z44	X45	Y45	Z45	X46	Y46	Z46	X47	Y47	Z47	X48	Y48	Z48	X49	Y49	Z49	X50	Y50	Z50	X51	Y51	Z51	

33	0.32000000	-1185.46607	833.18133	-451.39978	-1170.82413	748.52218	-433.47057	-1307.70058	409.56957	-455.98939	-1364.53348	354.93538	-504.69471	-1168.85951	356.73970	-406.36906	-1131.61252	382.80878	-463.84996	-1173.02268	828.40507	-743.63069	-1162.66852	707.31859	-757.11601	-1292.01675	407.29115	-745.67751	-1362.38647	356.92906	-706.94681	-1118.64226	375.03686	-720.57411	-1144.03362	349.26471	-784.18276	-1202.23656	639.47200	-428.97042	-1242.26754	768.56904	-421.08373	-1281.47196	658.59756	-419.97340	-1244.93285	737.86514	-777.79496	-1273.64432	617.92583	-775.16511	-1192.49722	1153.23649	-419.77831	-1155.91395	1048.75628	-432.84846	-1199.06454	1005.37415	-408.64136	-1298.57392	1111.61864	-420.47797	-1252.90636	1003.22748	-421.89476	-1172.50622	1156.24518	-767.52448	-1131.89468	1024.99182	-758.65457	-1289.46814	1117.23176	-775.66649	-1235.43363	988.91562	-776.18379	-1200.98381	1322.53827	-464.01077	-1375.46717	1402.69562	-552.76818	-1184.58244	1318.49777	-719.85227	-1369.98677	1398.82023	-661.22535	-1185.86806	1890.90877	-607.05636	-1155.37012	1850.48822	-427.06462	-1117.10985	1840.10680	-762.46700	-1075.63551	1775.27937	-557.15559	-1070.69452	1769.28759	-614.93251	-1341.37415	1665.47590	-330.74716	-1420.37332	1600.55172	-406.32490	-1416.14267	1613.17626	-320.27120	-1433.51192	1455.29307	-284.95001	-1449.76414	1339.60588	-282.77485	-1486.78453	1361.29319	-267.96897	-1265.55926	1647.61794	-877.42383	-1362.37152	1601.02119	-831.88500	-1339.05236	1595.47410	-895.10542	-1366.81534	1425.65635	-929.05528	-1378.24949	1325.77074	-927.03250	-1412.34746	1338.29227	-944.27963	-1300.45837	1264.32957	-475.75895	-1282.64829	1259.40491	-705.38430	-1286.37199	1268.30423	-502.70768	-1277.83746	1262.26915	-671.60762	
34	0.33000000	-1181.96151	832.08388	-452.12625	-1167.87065	747.42295	-433.82158	-1307.72205	409.69758	-456.05074	-1364.79003	354.81641	-504.72290	-1168.83221	357.35371	-407.09339	-1131.85145	383.53225	-464.44530	-1170.79762	827.50894	-742.92725	-1160.98604	706.56542	-756.93527	-1292.12948	407.39716	-745.63099	-1362.24945	356.86921	-707.07077	-1118.83500	375.47704	-720.64726	-1144.15361	349.81264	-784.31068	-1200.42793	638.70915	-429.43805	-1238.74777	767.83543	-421.52645	-1279.41614	658.56974	-420.11570	-1243.09192	737.74618	-777.37865	-1272.57886	618.15259	-775.09363	-1191.85141	1151.96591	-419.48810	-1154.19218	1047.84379	-433.13468	-1196.82480	1003.97625	-408.65548	-1297.31156	1109.37650	-419.89168	-1250.62584	1001.29958	-421.88505	-1172.96354	1155.38213	-767.37469	-1131.16759	1024.30257	-758.41872	-1289.52304	1115.41902	-775.07494	-1234.45284	987.37742	-775.45207	-1201.24261	1320.16652	-463.54051	-1375.45895	1401.13278	-551.85659	-1185.70100	1316.46656	-719.67771	-1370.41205	1397.53571	-660.11761	-1180.28730	1887.70541	-606.12394	-1148.54777	1846.68274	-425.77868	-1111.44618	1836.18742	-761.74826	-1071.16326	1771.00999	-556.58107	-1066.25573	1764.95266	-614.16687	-1339.74164	1667.13722	-330.00486	-1419.81375	1603.97298	-405.88488	-1416.04306	1617.02227	-319.69582	-1437.90851	1459.80854	-283.81548	-1457.27975	1344.56720	-281.41608	-1493.52430	1367.48451	-266.70981	-1264.55705	1648.22815	-877.56189	-1362.57287	1603.83613	-832.07858	-1339.34110	1598.04641	-895.60620	-1370.62576	1428.84711	-929.92228	-1383.76348	1329.17033	-928.33555	-1417.72082	1342.42814	-945.30749	-1300.95074	1262.38574	-475.20141	-1283.90053	1257.77565	-704.89175	-1286.93298	1266.16002	-502.09329	-1279.04952	1260.54221	-671.19622	
35	0.34000000	-1178.42773	830.98874	-452.95624	-1164.89044	746.24006	-434.37771	-1307.69469	409.84472	-456.16579	-1365.01817	354.70707	-504.72254	-1168.64975	358.16241	-407.68699	-1132.02061	384.35013	-465.15976	-1168.45540	826.60024	-742.30834	-1159.24107	705.72471	-756.48845	-1292.15711	407.53049	-745.55797	-1362.52800	356.78967	-707.00047	-1118.91810	375.95530	-720.73466	-1144.22875	350.27538	-784.43162	-1198.35290	637.88057	-430.18135	-1235.46445	767.45299	-421.83324	-1277.35853	658.41736	-420.44314	-1241.07963	737.67511	-777.04623	-1271.44445	618.04998	-774.60951	-1191.10270	1150.63863	-419.39027	-1152.45844	1046.99660	-433.62950	-1194.54565	1002.59927	-408.59725	-1296.06627	1107.06618	-419.24628	-1248.39536	999.79334	-421.25986	-1173.37114	1154.45136	-767.00871	-1130.39318	1023.54841	-758.17756	-1289.59567	1113.42906	-774.33332	-1233.39122	985.93160	-775.05010	-1201.43103	1317.67036	-462.96691	-1375.43397	1399.64673	-550.91815	-1186.82402	1314.20586	-719.29047	-1370.81919	1396.14198	-658.94366	-1174.62918	1884.27303	-605.11938	-1141.73355	1842.59059	-424.55684	-1105.73878	1832.07572	-760.91634	-1066.54209	1766.52148	-555.83892	-1061.71882	1760.45433	-613.49074	-1337.85429	1668.78194	-329.01728	-1419.02810	1607.11159	-405.38539	-1415.58102	1620.57748	-319.05352	-1441.56037	1464.17588	-282.57673	-1463.89252	1349.31139	-280.13767	-1499.33506	1373.34435	-265.47846	-1263.26628	1648.63290	-877.55090	-1362.43252	1606.34744	-831.99675	-1339.30661	1600.39678	-895.92346	-1373.90218	1431.76560	-930.37163	-1388.50035	1332.46136	-929.54777	-1422.35095	1346.31775	-946.20997	-1301.49217	1260.44344	-474.47590	-1285.20372	1255.98278	-704.22427	-1287.54436	1264.16800	-501.27628	-1280.31520	1258.67837	-670.49596	
36	0.35000000	-1175.02014	829.98969	-453.50975	-1161.92438	745.03975	-435.06733	-1307.63198	409.93511	-456.32548	-1365.20452	354.59316	-504.68497	-1168.34923	359.10660	-408.04280	-1132.11474	385.17546	-466.07974	-1166.02145	825.83367	-742.12489	-1157.39979	704.89738	-755.92612	-1292.14620	407.65866	-745.38621	-1362.89162	356.69918	-706.79042	-1118.97578	376.38460	-720.69367	-1144.28179	350.61152	-784.44067	-1196.21022	637.03155	-430.82454	-1232.36835	767.00923	-422.04393	-1275.21084	658.18608	-420.72723	-1238.98407	737.50097	-776.66125	-1270.12207	617.80609	-773.97513	-1190.11031	1149.23889	-419.64716	-1150.69124	1046.03636	-433.97551	-1192.39593	1001.11605	-408.53380	-1294.85599	1104.70429	-418.58965	-1246.20353	998.07386	-420.75371	-1173.74840	1153.33840	-766.47310	-1129.63366	1022.81198	-757.73871	-1289.70621	1111.26134	-773.52912	-1232.29131	984.40651	-774.63329	-1201.54192	1314.92846	-462.52399	-1375.32370	1398.28411	-549.75934	-1187.93876	1311.80805	-718.83344	-1371.23180	1394.66211	-657.65970	-1168.95276	1880.66614	-604.14076	-1134.90108	1838.15370	-423.37329	-1099.75556	1827.88406	-760.59806	-1061.79258	1761.75743	-555.04598	-1057.11064	1755.78649	-612.89345	-1335.57365	1670.00429	-327.89885	-1417.89651	1609.93236	-404.65244	-1414.63295	1623.80976	-318.30885	-1444.45204	1468.23115	-281.27357	-1469.57692	1353.79517	-278.70191	-1504.27765	1378.78621	-264.15793	-1261.71044	1648.76767	-877.45690	-1361.93001	1608.46008	-831.79397	-1338.89864	1602.44081	-895.99820	-1376.49242	1434.43343	-930.81287	-1392.49651	1335.44116	-930.32855	-1426.21701	1349.85795	-946.88164	-1302.00941	1258.40207	-473.69567	-1286.62913	1254.13740	-703.50959	-1288.15984	1262.45430	-500.38771	-1281.74342	1256.77484	-669.58474	
37	0.36000000	-1171.73437	828.90954	-453.95529	-1158.92721	743.77783	-435.76618	-1307.54178	409.95826	-456.46650	-1365.37724	354.45968	-504.60023	-1168.09387	359.87563	-408.56450	-1132.17056	385.84715	-467.08774	-1163.50527	825.15184	-742.13555	-1155.42070	704.14636	-755.63681	-1292.18855	407.79176	-745.11897	-1362.83045	356.66049	-706.66019	-1119.09232	376.67734	-720.57787	-1144.34665	350.95934	-784.41923	-1194.17773	636.18422	-431.25932	-1229.23434	766.29601	-422.30708	-1272.88691	657.89848	-420.81284	-1236.80913	737.25391	-776.26177	-1268.66098	617.84885	-773.81158	-1189.14435	1147.69895	-419.80760	-1148.96962	1044.87370	-434.03058	-1190.46252	999.52806	-408.43210	-1293.70597	1102.26394	-417.98146	-1244.11873	995.86819	-420.68501	-1174.19002	1152.08733	-765.92828	-1128.80796	1022.08221	-757.04549	-1289.87950	1108.97791	-772.64856	-1231.20724	982.60209	-773.68302	-1201.64808	1311.96773	-462.22958	-1375.19746	1396.84628	-548.39809	-1189.01953	1309.27467	-718.47887	-1371.50832	1393.16933	-656.44422	-1163.25184	1876.92822	-603.20810	-1128.02890	1833.40057	-422.12437	-1093.73111	1823.34893	-759.93265	-1056.99635	1756.74349	-554.34409	-1052.47961	1750.90440	-612.22265	-1332.84376	1670.54600	-326.98681	-1416.35535	1612.34596	-403.65899	-1413.12932	1626.56178	-317.51419	-1446.60772	1471.79500	-280.06798	-1474.35177	1357.88243	-277.24959	-1508.52817	1383.72338	-262.89778	-1259.86171	1648.62604	-877.41724	-1360.96521	1610.16267	-831.55181	-1338.02025	1604.04924	-895.93552	-1378.33615	1436.75440	-931.27148	-1395.74415	1337.98587	-930.72510	-1429.33862	1352.91236	-947.16715	-1302.52047	1256.19154	-472.99689	-1288.10152	1252.25281	-702.87930	-1288.84814	1260.53328	-499.76564	-1283.07333	1254.77615	-668.90865	
38	0.37000000	-1168.43600	827.53871	-454.63378	-1155.93046	742.34147	-436.42815	-1307.36840	410.00705	-456.51966	-1365.53571	354.32637	-504.47335	-1167.93212	360.25300	-409.57115	-1132.20658	386.31254	-468.08687	-1160.94261	824.28053	-741.65771	-1153.33254	703.45363	-755.62107	-1292.19148	407.90640	-744.93141	-1362.51171	356.72189	-706.71977	-1119.18502	376.81582	-720.50890	-1144.40090	351.25881	-784.40171	-1192.11120	635.18227	-431.91040	-1225.93682	765.52735	-422.60271	-1270.50987	657.45550	-420.84937	-1234.51761	737.01875	-775.76296	-1267.20954	617.98190	-773.86275	-1188.49689	1145.96482	-419.53373	-1147.58340	1043.51872	-433.94288	-1188.62026	997.83488	-408.32250	-1292.71093	1099.68646	-417.47377	-1242.25111	993.56092	-420.64485	-1174.72274	1150.77091	-765.33043	-1127.97175	1021.26491	-756.27162	-1290.12824	1106.54539	-771.65959	-1230.13704	980.64688	-772.48603	-1201.76177	1308.94233	-461.82338	-1375.01879	1395.21230	-547.00830	-1190.06944	1306.52989	-718.06367	-1371.59826	1391.65870	-655.31159	-1157.41302	1872.98107	-602.17686	-1121.13170	1828.42160	-420.83454	-1088.29472	1817.88649	-756.94091	-1052.18926	1751.57070	-553.61012	-1047.81019	1745.74860	-611.34757	-1329.74760	1670.53998	-326.14966	-1414.43109	1614.19576	-402.72375	-1411.13407	1628.63626	-316.77176	-1448.07454	1474.82046	-278.98495	-1478.20985	1361.42404	-275.91433	-1512.03200	1388.07545	-261.67695	-1257.69872	1648.06561	-877.21395	-1359.47340	1611.32394	-831.22051	-1336.63799	1605.07252	-895.82806	-1379.49214	1438.44124	-931.37552	-1398.17847	1339.98366	-931.01266	-1431.68709	1355.25197	-947.06132	-1303.05037	1253.90551	-472.24463	-1289.50545	1250.22262	-702.18502	-1289.54820	1258.17825	-499.22758	-1284.20702	1252.62775	-668.35468	
